<svg xmlns="http://www.w3.org/2000/svg" width="175" height="175"><defs><clipPath id="a"><path data-name="長方形 14" transform="translate(801 725)" fill="#fff" stroke="#707070" opacity=".571" d="M0 0h175v175H0z"/></clipPath></defs><g data-name="マスクグループ 1" transform="translate(-801 -725)" clip-path="url(#a)"><g data-name="グループ 16"><path d="M869.054 876.847c1.8-1.238 3.915 2.015 3.225 4.141-15.272 22.55-12.017 20.73-17.49 31.443a7.748 7.748 0 01-1.256 5.449c-1.431 2.309-4.634 8.15-5.891 7.393s1.041-5.285 1.041-5.285-4.68 6.383-6.148 5.87 2.465-7.412 2.465-7.412-4.977 5.814-5.817 4.672 3.649-7.577 3.649-7.577-4.813 4.371-5.8 3.51 5.317-8.906 5.317-8.906-4.468.41-4.384-1.092 6.629-2.445 6.629-2.445 14.853-23.676 24.46-29.761z" fill="#fbddba"/><path d="M865.962 919.155c-.073 6.444.107 22.434 0 29.608 9.047 5.266 14.836.179 14.836.179v-19.511s-11.127-15.109-14.836-10.276z" fill="#222"/><path d="M863.119 907.005c1.3-3.659 46.524.346 46.524.346s.6 12.267-2.579 15.93c-.662 12.1-.018 24.972-.232 32.883-2.531 2.841-11.775 5.113-15.517 0-.169-3.948-.107-16.4-.318-20.086-29.834 3.696-27.614-24.944-27.878-29.073z" fill="#444"/><path d="M874.288 871.3l1.959.709s-5.615 10.677-5.31 9.321-3.972-4.433-3.972-4.433z" fill="#1f3369" stroke="#707070" stroke-width=".2"/><path d="M876.919 875.93c.242 2.712 4.936 5.694 11.254 2.515-.234 3.634-12.905 13.8-12.732 12.49s-1.726-12.114 1.478-15.005z" fill="#444" opacity=".997"/><path d="M895.548 880.759c-6.362-1.16-29.479 41.079-6.79 38.633 4.63-.419 19.2-2.18 20.835-11.8 3.1-12.115-7.018-23.007-14.045-26.833z" fill="#1f3369"/><path d="M877.3 872.781s-2.211 2.581-.339 5.073 5.592 3.308 9.9 1.118a15.827 15.827 0 006.322-6.009z" fill="#f2c596"/><path data-name="パス 54" d="M904.028 877.1c-7.912-7.009-13.868-1.258-4.585 6.642s15.5 22.2 17.092 29.47c.327.661-.717 11.894.958 11.893s1.8-3.76 2.074-3.211c1.381 2.777 4.687 8.572 6.089 8.26s-.823-6.609-.474-6.153c1.741 2.278 3.063 6.378 4.4 6.054s-1.1-7.323-.606-7.2c.87.229 3.183 5.6 4.566 5.1s-1.671-7.15-1.091-7.177c.519.041 2.292 3.315 3.323 2.231s-4.573-9.115-6.8-11.262c-4.86-12.365-16.82-28.515-24.946-34.647z" fill="#fbddba"/><path d="M894.811 871.378c-5.1 3.518-17.164 15.135-17.164 15.135v-15.736s-.878-3.163-2.724 0c-4.636 7.94-14.409 29.79-11.169 38.614 2.1 8.08 21.085 11.96 30.732 9.15 16.506-3.782.827-37.56.827-37.56a27.269 27.269 0 014.445 3.043c.736-2.5 1.862-3.943 5.541-6.235-2.739-2.489-5.989-4.343-10.488-6.411z" fill="#2e4b9b"/><path d="M850.3 768.768L820.353 809.3s-14.732 10.909-1.062 24.394c1.477 35.61 80.628 58.548 122.585 20.283 22.244-4.17 10.064-31.262-1.174-29.205-22.894-21.301-90.402-56.004-90.402-56.004z" fill="#fbddba"/><path d="M820.412 814.551c-2.019 4.825-1.6 5.452-1.449 12.585-.57-.556-3.062-3.62-2.453-6.519a12.393 12.393 0 013.9-6.066z" fill="#f2c596"/><path d="M873.095 854.052c-2.956.009-2.827 6.732-1.388 8.316s5.3.779 5.881-.517-1.537-7.808-4.493-7.799z" fill="#f69698"/><path d="M871.127 827.7s.072 5.151 0 8.712c-9.758-.234-5.393 9.439 3.931 9.047a14.9 14.9 0 006.855-1.68c-4.833 3.132-8.748 3.641-12.037 3.1-4.966-.8-7.274-5.415-6.065-8.935a5.2 5.2 0 015.2-3.15c.469-1.615.406-5.245.862-6.809.385-1.313 1.254-.285 1.254-.285z" fill="#e6b07f"/><path data-name="前面オブジェクトで型抜き 2" d="M913.56 850.187c-12.255 0-29.988-8.414-31.875-10.465-.808-.8-.85-2.528-.888-4.05a7.563 7.563 0 00-.355-2.756.361.361 0 00.046-.39c-.421-.791-4.151-.957-7.206-.957-2.782 0-5.1.135-5.741.176a2.7 2.7 0 00-.363 1.48 4.679 4.679 0 01-1.264 3.338c-.367 1.218-3.206 2.6-7.594 3.7a65.254 65.254 0 01-15.183 1.81 40.391 40.391 0 01-12.235-1.646 9.223 9.223 0 01-4.337-2.932 20.085 20.085 0 01-3.212-5.189 24.468 24.468 0 01-2.186-11.619c.302-2.734 1.418-4.288 3.151-4.377a39.646 39.646 0 015.607-.323 151.941 151.941 0 0127.46 3.034c7.992 2.8 8.378 3.67 9.409 6 .2.458.433.977.75 1.577a35 35 0 006.441.565c1.146 0 2.225-.043 3.178-.082h.094c.994-.04 1.931-.078 2.879-.078.556 0 1.064.013 1.552.04.455-.1.6-.369.806-.749a3.98 3.98 0 012.039-1.9c.821-.634 4-1 8.712-1a139.448 139.448 0 0121.45 1.793 57.783 57.783 0 019.255 2.211c2.663.935 4.319 1.962 4.923 3.054.48.914-.068 4.01-1.273 7.2a28.829 28.829 0 01-3.892 7.163 14.656 14.656 0 01-6.252 5.03 20.487 20.487 0 01-3.9.342zm-18.655-24.055c-4.008 0-7.045.329-8.332.9-.8.538-1.473 2.039-1.748 3.919a14.424 14.424 0 00.688 6.752c2.464 2.185 6.61 4.344 11.374 5.921a52.7 52.7 0 0016.275 2.7c.956 0 1.907-.031 2.828-.092h.007c.634 0 1.633-1.106 2.673-2.958a25.5 25.5 0 002.585-6.85c.4-1.932.657-4.613-.442-6.416-8.206-2.861-19.085-3.877-25.908-3.876zm-60.931-7.145c-2.7 0-4.478.17-4.875.465-.943.827-1.64 3.766-1.656 6.987a19.868 19.868 0 00.727 5.6 9.436 9.436 0 002.586 4.479c2.221.78 7.09 1.227 13.357 1.227 8.246 0 15.934-.734 17.5-1.669 1.688-1 2.352-3.784 2.6-5.351a13.453 13.453 0 00-.179-5.809c-2.449-2.354-8.677-3.773-13.466-4.549a111.779 111.779 0 00-16.594-1.38z" fill="#803838"/><g transform="translate(-401 -7)"><path d="M1250 827a9 9 0 11-9 9 9 9 0 019-9z" fill="#5e442c"/><circle cx="4" cy="4" r="4" transform="translate(1246 832)" fill="#f9f9f9"/></g><g transform="translate(-347)"><circle data-name="outer" cx="9" cy="9" r="9" transform="translate(1241 827)" fill="#5e442c"/><circle data-name="inner" cx="4" cy="4" r="4" transform="translate(1246 832)" fill="#fff"/></g><path d="M859.995 817.888c.33-.707-.4-3.377-2.109-4.672a54.908 54.908 0 00-18.674-2.985c-4.4.62-7.122 5.572-7.122 5.572s9.093-4.732 27.905 2.085zm31.649-.311c-1.261.408-2.388 4.307-2.388 4.307s20.19-2.372 26.722 3.423c.187-3.015-1.985-5.82-6.408-6.93s-16.67-1.209-17.926-.8z" fill="#3c3f2e"/><circle cx="1" cy="1" r="1" transform="translate(856 859)" fill="#414141"/><path d="M942.135 833.269c.275-1.191 9.369 2.062 7.412 9.629s-11.11 7.9-10.175 6.809 4.228-12.937 2.763-16.438z" fill="#f2c596"/><path d="M819.6 824.732c4-27.883 16.972-15.674 33.349-45.038 10.948 26.6 46.847 36.121 52.779 35.676-6.435-2.885-23.346-10.155-26.961-23.589 9.334 8.958 37.288 28.415 56.7 32.328.892 7.976 1.617 5.221 2.433 18.661 2.652-6.33 2.045-16.008 2.045-16.008s9.538 1.456 12.044 5.819c.13-1.116 0-6.015 0-6.015s8.034-.181 11.947-1.9c-10.06-.215-6.821-.347-11.947-1.221a32.894 32.894 0 010-4.4c3.115-.082 3.489 2.039 4.921 4.025 1.152-7.546-3.533-12.772-3.969-13.829 2.914-.367 5.315 2.555 5.758 3.814.245-8.566-13.085-25.1-13.085-25.1l-8.558-19.3-16.4-11.32-6.351-2.38v15.468l-19.58-20.575-13.673-7.232-12.706-1.448v11.158l-12.751 7.923-25.874 19.444-7.819 20.07s-4.734 20.392-2.302 24.969z" fill="#3c3f2e" stroke="#435eb5" stroke-width=".2"/><g fill="#73795d"><path data-name="パス 43" d="M820.276 780.742c1.535-9.644 13.1-19.522 21.549-14.011.129-.331-19.609 11.311-21.549 14.011z"/><path data-name="パス 44" d="M847.307 740.542c-1.218.817-3.946 6.622-1.056 19.779 4.266-2.556 4.906-2.523 5.934-2.677-.196-.703-4.978-16.353-4.878-17.102z"/><path data-name="パス 45" d="M862.341 729.725c-1.42.1-7.172 15.467 0 25.568a52.432 52.432 0 014.587-3.589c-4.851-10.027-3.414-14.322-4.587-21.979z"/></g><path d="M961.931 825.378c-37.393 9.076-97.456-39.14-102.483-57.861-3.3 7.251 13.925 35.185 46.307 47.873-9.2-3.324-29.83-5.8-52.849-35.678-20.11 33.742-32.139 10.1-33.28 45.014a37.9 37.9 0 011.387-25.608c-1.662-.011-2.914.049-4.615 0 3.817-8.287 7.461-13.955 11.353-17.255-1.471-2.31-8.021-.736-7.316-1.248a30.9 30.9 0 0121.377-13.886c-.793-.686-2.836-1.218-7.145-.908-1.07-4.007-.489-7.636-.365-13.044.13-.463 3.442 6.84 12.143 4.83a3.054 3.054 0 010 2.521s3.993-2.571 5.656-2.521c-3.3-5.5-5.883-18.843-4.539-16.822 4.832 7.69 13.367 9.673 14.776 13.227a10.652 10.652 0 013.818-2.215 45.5 45.5 0 01-3.818-21.972c4.227 5.592 25.606 13.625 30.536 18.986-.035-7.9 1.31-7.927 1.447-13.068 8.3 10.347 25.874 15.755 30.528 22.627.335-.516 1.592-4.627-1.181-9.2-.482-.433 10.445 2.2 9.349 16.648.216.113 5.512 2.04 9.572-5.586 1.546 6.2-2.926 13.846-2.926 13.846a19.7 19.7 0 0112.517 6.579c.444.275-5.58 0-5.58 0s7.783 8.039 9.608 17.2a7.771 7.771 0 00-5.792-3.194 19.009 19.009 0 012.591 10.1s-.47.222 1.732-.549c-.034 2.4-3.279 9.531-8.139 11.177-.458.341-.479 4.924-1.358 5.337-.414.2-.052-5.107-.861-4.885a21 21 0 01-10.694-.452c-20.862-11.021-27.4-65.8-62.394-55.263 31.585-.117 40.216 40.515 45.347 47.289-21.437-20.16-29.251-23.475-39.441-31.9 41.36 52.248 81.667 49.997 84.732 49.861z" fill="#525646"/><path d="M933.188 796.971c4.031 6.371 4.65 14.952 4.65 14.952a13.645 13.645 0 015.533 0c-1.384-4.433-4.784-11.117-10.183-14.952zm9.391-2.764s4.339 11.477 3.655 16.776a25.11 25.11 0 016.115-4.959c-2.486-6.203-9.77-11.817-9.77-11.817zM852.78 775.22c-6.131 17.225-22.542 19.462-28.91 19.612 12.567-3.132 25.153-14.745 28.91-19.612zm-7.84.661c-6.208 2.287-8.957 2.792-14.434 7.056 1.738-7.067 8.261-6.437 14.434-7.056zm1.899-14.317c-1.712.939-4.645 5.574-7.666 9.3 6.471-.734 14.09-2.644 15.737-4.523-5.686-.247-5.674-.011-8.373-.4a12.93 12.93 0 01.3-4.377zm46.607-10.433c-3.674-4.206-11.454-7.548-16.188-7.872 7.695 5.299 5.788 7.556 16.188 7.872zm22.372 5.792c9.626 11.218 3.1 18.73 3.245 20.146 15.359 1 16.4 1.4 23.381 3.6-5.285-5.64-14.146-7.117-14.146-7.117s2.792.593 3.9-6.2c-1.626 1.615-1.7 1.942-6.533 3.566.088-1.341 1.549-7.366-9.847-13.995z" fill="#3c3f2e"/><g fill="#73795d"><path data-name="パス 46" d="M843.93 779.03c-7.3 5.74-5.827 5.08-15.94 8.846 11.232.448 14.563-5.9 15.94-8.846z"/><path data-name="パス 47" d="M848.93 785.03c-6.6 7.54-19.957 14.01-25.311 16.017 10.357 1.074 22.31-10.72 25.311-16.017z"/><path data-name="パス 48" d="M859.855 784.482c1.565 5.45 16.99 18.081 20.216 18.401-7.934-6.507-15.8-16.017-20.216-18.4z"/><path data-name="パス 49" d="M872.505 777.955c-1.625 6.976 19.61 20.971 19.61 20.971s-13.375-13.565-19.61-20.97z"/><path data-name="パス 50" d="M872.718 766.207s20.75 9.3 32.104 25.684c-11.215-24.285-32.104-25.684-32.104-25.684z"/><path data-name="パス 51" d="M863.172 758.315c29.32-14.433 53.734 22.674 60.388 38.73-5.703-24.554-32.955-59.308-60.388-38.73z"/><path data-name="パス 52" d="M898.058 742.015c4.334 6.483 5.574 11.474 7.82 16.074.597 1.25 3.81 3.93 6.091 6.843.594-1.797-.717-7.07-4.196-12.8s-3.816-3.962-9.715-10.117z"/><path data-name="パス 53" d="M919.052 777.086c9.303 3.329 13.838 7.139 17.934 13.837-.153-2.408-.25-7.453-4.532-10.816-4.355-4.113-10.379-2.932-13.402-3.021z"/></g></g></g></svg>