<svg xmlns="http://www.w3.org/2000/svg" width="96" height="96"><g data-name="グループ 11"><path data-name="長方形 9" fill="none" d="M0 0h96v96H0z"/><path data-name="パス 11" d="M90.895 0H5l7.579 85.895L47.947 96l35.369-10.105z" fill="#0277bd"/><path data-name="パス 12" d="M47.947 7.579v80.589l28.295-8.089 6.316-72.5z" fill="#039be5"/><path data-name="パス 13" d="M70.936 20.211H47.947v10.1h12.379l-.758 10.1H47.947v10.116h11.116l-.758 11.368-10.358 3.537v10.611l19.958-6.568 1.768-29.053z" fill="#fff"/><path data-name="パス 14" d="M47.947 20.211v10.1H25.463l-.758-10.1zM36.326 40.422l.5 10.1h11.121v-10.1zm1.011 15.158H27.231l.758 13.9 19.958 6.568V65.432l-10.358-3.537z" fill="#eee"/></g></svg>
