<svg xmlns="http://www.w3.org/2000/svg" width="96" height="96"><g data-name="グループ 17"><path data-name="長方形 3" fill="none" d="M0 0h96v96H0z"/><path data-name="パス 63" d="M96 62.8a5.332 5.332 0 01-5.332 5.332H5.332A5.332 5.332 0 010 62.8V32.332A5.332 5.332 0 015.332 27h85.336A5.332 5.332 0 0196 32.332z" fill="#092e20"/><g data-name="グループ 6"><g data-name="グループ 5" fill="#fff"><path data-name="パス 64" d="M16.558 33.46h4.546v21.043a29.99 29.99 0 01-5.9.62c-5.55 0-8.443-2.509-8.443-7.321 0-4.635 3.07-7.646 7.823-7.646a7.282 7.282 0 011.978.236V33.46zm0 10.592a4.516 4.516 0 00-1.535-.236c-2.3 0-3.631 1.417-3.631 3.9 0 2.421 1.269 3.749 3.6 3.749a10.634 10.634 0 001.564-.118z"/><path data-name="パス 65" d="M28.336 40.48v10.54c0 3.631-.266 5.372-1.063 6.878a7.268 7.268 0 01-3.72 3.365l-4.222-2.007c2.007-.945 2.982-1.771 3.6-3.041.65-1.3.856-2.8.856-6.76V40.48zm-4.546-7h4.546v4.665H23.79z"/><path data-name="パス 66" d="M31.086 41.514a13.673 13.673 0 016.022-1.358c2.332 0 3.867.62 4.546 1.83.384.679.5 1.564.5 3.454v9.237a49.96 49.96 0 01-6.494.5c-3.808 0-5.521-1.329-5.521-4.28 0-3.189 2.273-4.665 7.853-5.137v-1c0-.826-.413-1.121-1.565-1.121a11.905 11.905 0 00-5.341 1.388v-3.513zm7.115 7.233c-3.011.3-3.985.768-3.985 1.948 0 .886.561 1.3 1.8 1.3a12.579 12.579 0 002.185-.206z"/><path data-name="パス 67" d="M44.367 41.189a27.25 27.25 0 017.144-1.033c2.332 0 4.015.531 5.019 1.565.945.974 1.24 2.036 1.24 4.31v8.915h-4.546v-8.738c0-1.742-.59-2.391-2.214-2.391a6.85 6.85 0 00-2.1.325v10.8h-4.546V41.189z"/><path data-name="パス 68" d="M59.537 57.425a10.351 10.351 0 004.871 1.21c2.981 0 4.251-1.21 4.251-4.1v-.089a6.215 6.215 0 01-2.952.62c-3.985 0-6.525-2.628-6.525-6.79 0-5.166 3.749-8.089 10.391-8.089a28.722 28.722 0 015.934.649l-1.557 3.28c-1.21-.236-.1-.032-1.012-.12v.472l.059 1.919.029 2.48c.03.62.03 1.24.059 1.859v1.24c0 3.9-.325 5.727-1.3 7.232-1.417 2.214-3.867 3.306-7.351 3.306a13.006 13.006 0 01-4.9-.886v-4.193zm9.033-13.58h-.472a4.967 4.967 0 00-2.627.649 3.523 3.523 0 00-1.65 3.337c0 2.273 1.122 3.572 3.129 3.572a5.636 5.636 0 001.712-.3v-1.56c0-.531-.029-1.122-.029-1.742l-.029-2.1-.03-1.505v-.354z"/><path data-name="パス 69" d="M82.565 40.097c4.546 0 7.321 2.864 7.321 7.5 0 4.753-2.893 7.734-7.5 7.734-4.546 0-7.351-2.863-7.351-7.468.002-4.785 2.895-7.766 7.53-7.766zm-.089 11.572c1.742 0 2.775-1.447 2.775-3.956 0-2.479-1-3.956-2.745-3.956-1.8 0-2.835 1.447-2.835 3.956s1.034 3.956 2.805 3.956z"/></g></g></g></svg>