<svg xmlns="http://www.w3.org/2000/svg" width="97" height="96">
  <g data-name="グループ 16">
    <path data-name="長方形 4" fill="none" d="M1 0h96v96H1z" />
    <path data-name="パス 16" d="M28.675 81.278c-3.657-2.888-7.557-5.645-10.22-9.526A76.888 76.888 0 015.572 48.649C3.79 43.248 3.19 37.434.883 32.202c-2.4-3.769.413-7.914 4.557-9.114 1.838-.356 5.1-2.1 1.163-.844-3.507 2.569-3.844-2.344-.244-2.663 2.453-.318 3.353-2.343 2.513-4.143-2.625-1.725 6.413-3.6 1.857-6.188-4.744-5.1 6.62-6.095 3.826-.3-.675 4.463 7.932-.806 5.945 4.351 2.025 2.475 7.595.563 7.445 4.032 2.963.206 3.976 2.682 6.751 2.869 2.888 1.313 8.1 2.325 9.076 5.57-2.85 2.269-9.47-4.651-9.789 1.594.863 9.226.638 18.753 4.013 27.548 1.613 5.326 5.476 9.526 8.983 13.671 3.338 4.069 7.876 6.92 12.508 9.339A52.213 52.213 0 0072.351 81.9c1.782-1.369 4.951-6.47 7.745-4.313.131 2.4-5.551 5.044-.263 4.782 3.094-.938 5.251 2.4 7.82-.6 2.344 2.775 9.789-1.782 8.1 3.919-2.269 1.444-5.57.581-7.839 2.569-3.732-1.857-6.713 1.669-10.858 1.238a80.774 80.774 0 01-13.933 1.163c-7.651-.6-15.452-.863-22.728-3.507a47.007 47.007 0 01-11.72-5.87zm6.451 2.794c3.994 1.725 7.932 3.544 12.321 4.107 6.957.956 14.14 2.457 21.134 1.088-3.15-1.444-6.432.563-9.583-1.031-3.788.806-7.82-.206-11.683-.694-4.351-1.932-9.076-3.282-13.183-5.813-5.1-1.857 2.644 2.382 4.032 2.757 3.188 1.819-3.526-.938-4.444-1.688-2.663-1.5-3.019-1.181-.263.319.544.319 1.088.675 1.669.956zm-7.614-5.4c3.882 1.444-.019-2.719-1.8-2.475-.788-1.35-3-2.232-1.444-2.944-2.832.975-2.944-3.713-4.276-3.057-2.982-.938-1.163-4.257-4.707-6.32-.319-2.175-3.526-4.051-4.557-7.314-.45-1.65-3.6-6.451-1.669-2.007 1.65 4.294 4.576 7.97 6.995 11.645 1.894 3.488 4.107 7.145 7.557 9.32 1.144 1.106 2.269 2.813 3.9 3.15zM16.336 66.407c.131-.581.712 1.275 0 0zm15.809 13.989c.862-.374-1.22-.468 0 0zm2.119.769c-.226-1.05-.976.582 0 0zm2.648 1.107c1.233-1.2-1.955-.75 0 0zm4.519 2.513c.765-1.122-2.461-.413 0 0zm-8.682-6.038c1.946-1.276-2.537-.019-.005 0zm1.969.975c-.042-.675-.7.3-.006 0zm9.883 6.17c1.594.994 9.283 2.194 4.463.413-.793.168-8.931-2.308-4.468-.414zM28.919 73.683c-.15-.675-2.475-.75 0 0zm4.593 2.663c1.2-.825-2.494-.638 0 0zm3.882 2.382c1.706-.638-2.794-.656 0 0zm-10.351-7.107c1.857 1.444 7.52.188 2.85-.844-2.119-1.144-6.9-1.913-3.657.675zm12.959 7.932c.768-1.332-3.245-.769 0 0zm-3.938-3.15c4.557 1.294-3.826-2.869-1.125-.469l.6.263zm7.9 4.576c4.308.037-3.905-.6-.005 0zM25.393 69.126c-.169-.787-1.069.075 0 0zm25.879 15.937c.094-1.441-1.407 1.091 0 0zM32.744 73.646c-.262-.769-1.35-.038 0 0zm-6.957-5.026c2.475-.131-3.375-1.088 0 0zm-8.251-5.326c-.281-1.181-2.682-2.119 0 0zm21.659 13.769c-.469-.548-.225.09 0 0zm13.446 8.232c-.038-.773-.713.3 0 0zm-14.646-9.47c.244-1.031-2.119-.319 0 0zm-10.033-6.38c1.838-.188-2.944-1.238 0 0zm16.971 10.539c2.869-1.121-2.813-.563 0 0zM36.1 74.002c3.319.413-3.938-2.25-.731-.225zm11.512 7.089c3.094-1.857 2.082 4.332 5.251.506 3.132-2.288-2.7 2.832 1.163.413 2.775-1.857 6.9.881 9.508 1.782 1.875-.094 3.694 1.631 5.607.581 3.694-.994-7.22-1.463-4.351-3.225-3.375.975-5.87-1.181-7.539-3.338-3.807-.881-8.176-2.813-10.07-6.17-.788-1.256 1.106.188-.675-1.875-2.288-2.025-3.432-4.351-4.951-6.807-1.819-.975-2.044-3.844-2.232-.094.019-2.382-2.213-3.976-2.757-3.3-.019-2.288 2.382-1.144.694-2.832-.348-2.383-1.548-4.839-1.909-7.521-.544-1.275-.075-4.032-1.894-1.125-.656 3.075-.225-3.788.806-1.519 1.35-2.307-.488-2.044-.563-1.725.881-1.95.563-4.726-.225-3.676.469-2.063.75-7.614-.694-6.62.881-2.157 1.65-9.883-2.119-6.938a16.2 16.2 0 00-5.457 1.181c3.938 2.175-.413.788-2.007.431-.206 2.007-1.8 1.143-3.786 1.163 3.169.394-1.556 3.225-3.375 2.138-2.363 1.125 2.044 3.938.038 4.819.244 1.313-3.6-.469-3.319 2.569-2.288-.975-.319 3.6.825 2.063 3.9 1.05 2.757 3.45 2.85 5.757-.619 1.331-3.132-3.132-.544-2.944-2.025-3.3-2.25-1.181-3.957.338-.394.113 4.332 2.194 1.369 3.225 2.588.394 2.682 2.682 3.188 4.107 1.556 1.631 1.256-1.8 3.132.169-1.181-1.744-6.263-4.913-2.194-3.9-.019-1.744-.731-3.169.506-3.132 1.256-2.25-1.294 5.551 1.5 2.682.788-.338.975-2.25 2.382.169 2.025 2.007.713 3.432-2.119 1.613.506 1.725 3.807 2.363 3.188 5.063.656 2.4 1.575 1.5 2.382 1.369.619 2.307.975.6 1.013-.506 2.888.619 2.194 2.325 3.113 3.525 1.988.881-2.85-6.1.581-2.1 3.582 3.244 1.35 4.594-1.894 4.069 2.044-.15 2.7 2.775 5.251 2.663 2.325 1.106 3.9 5.363-.113 3.6-1.388-1.256-6.32-2.813-2.288-.413 3.713 1.725 6.657 2.757 10.258 4.913 2.55 1.819 3.676 3.938 4.632 4.351-2.157 1.031-6.507-.825-3.282-1.388-2.007-.356-4.257-1.369-2.344 1.125 1.631 1.369 5.8 1.219 6.545 1.369-.638 1.388-1.725 1.5.038 1.613-1.894 1.013.675 1.181.844 1.782zM43.64 69.839c-1.181-1.256-1.5-3.563-.225-1.556.656.28 2.119 3.806.225 1.556zm12.958 8.232c.731-.037.014.563 0 0zm-14.834-11.27c-.052-1.857.431 1.444 0 0zm-1.294-1.725c-1.481-2.869 1.894.825 0 0zM24.868 54.293c.881-.225.431 1.5 0 0zm12.433 6.751c.525-2.025.619 1.688 0 0zm-8.8-6.1c-.6-1.125 1.3 1.032 0 0zm7.539 2.4c-1.406-3.15.994-1.725.319.525zm-12.972-8.658c-.619-1.031-1.669-4.069-1.331-5.007.3 1.5 3.207 6.507 1.425 2.063-1.969-3.713 2.363 1.2 2.813 2.138.206.919-1.219-.244-.263 1.913-1.763-2.457-1.05 1.369-2.644-1.106zm-4.032-2.757c.169-2.419.919 1.65 0 0zm1.819.619c.863-1.819 1.444 2.532 0 0zm-4.351-3.357c-1.5-1.481-2.569-2.85.056-.919 1.031.038-2.25-3.113.244-.994 2.663.469 1.308 4.313-.3 1.913zm2.288-.056c.882-.862.45.844 0 0zm1.406.45c-1.313-2.475 1.594 1.031 0 0zm-2.794-2.682c-4.351-3.863 5.476 2.025.694.713zm12.452 7.239c-1.894-1.125-.506-7.932.131-3.282 1.819-.6-.113 2.4 1.256 2.382-.205 1.894-.805 2.569-1.387.9zm4.6 2.721c.182-2.046.389 1.4-.005 0zm-.806-.788c.206-.883.018 1.03 0 0zM18.267 39.647c-2.794-3.863 8.1 3.882 1.782.975-.657-.187-1.463-.243-1.782-.975zm8.851 4.707c-.262-3.263.601.525 0 0zm6.733 4.309c.525-1.852.037 1.223 0 0zm-15.171-10.5c1.65-.356 6.882 2.907 2.082.938-.525-.581-1.65-.319-2.082-.938zm14.232 7.11c.188-3.319.994-1.988.019.469zm-13-8.251c.675-.975-1.8-4.482.356-1.256.919.731 2.682 1.238 1.125 1.556 2.463 2.156-.575.581-1.476-.3zm12.3 7.22c.476-3.788.42 2.194.007 0zm-13.7-10.708c.524-.225.262.694 0 0zm3.207 1.913c.824-1.744 1.518 1.931 0 0zm9.039 5.044c0-.675.167.956 0 0zm-.506-1.181c-1.256-3.094 1.181 1.653 0 0zm-.788-2.025c-.206-1.275.731 1.613 0 0zm1.275-2.044c-.863-1.519 1.088-6.695 1.294-3.488-.9 2.494-.244 3.9.375.544 1.163-2.644-.263 5.232-1.669 2.944zm1.273-7.689c.375-.469.094.544 0 0zm-2.137 42.456c-.525-.45.056.281 0 0zm4.444 2.232c2.457.638 2.457-.375.225-.675-1.2-1.125-4.988-2.307-1.594-.15.207.581.919.562 1.369.824zm-8.776-5.813c1.35 1.013 5.1 2.869 1.913.375 1.069-1.239-2.044-1.914-1.013-2.739-2.625-1.631-2.082-1.463-.225-1.425-3.188-1.425.45-1.313.281-2.044-1.238-.225-6.076-2.157-3.225.15-2.907-1.463-.694.563-1.575.338-2.963-.806 2.644 2.269-.469 1.5 1.706 1.35 4.594 3.45.713 1.425-.488.75 2.794 1.857 3.6 2.419zm4.651 2.663c5.626 1.819-2.775-2.232 0 0zm23.741 14.4c.077-1.127-.769.956 0 0zm2.457 1.031c1.294-1.256.056 2.007 2.157-.319.019-1.65-.056-2.644-2.419-.619-.657.358-.939 1.9.261.939zm-38.78-24.358c-.395-1.576-2.8-1.576 0 0zm2.607 1.725c-.977-1.613-3.452-1.463 0 0zm14.851 8.945c1.444 1.275 6.657.938 1.763.15-.732-1.069-4.614-.806-1.763-.15zm20.384 12.583c2.231-1.875-2.157.847 0 0zm4.632 3.188c.019-.6-.956.259 0 0zm0-.825c2.475-2.626-2.382.15 0 0zm-48.889-30.98c-2.1-3-1.313-4.351-3.338-6.788-.375-1.894-3.469-6.151-1.594-1.631 1.726 2.625 2.232 6.694 4.932 8.419zm48.138 30.117c4.539-2.906-1.875-1.253 0 0zm3.469 1.369c2.269-1.932-1.444-.394 0 0zM16.842 56.843c.656-.956-1.669-.131 0 0zm45.213 28.52c2.194-1.425-.506-1.2-.394.131zM32.182 66.52c-.075-.957-1.163.075 0 0zm1.838 1.069c-.581-1.2-.9.188 0 0zm31.6 18.753c2.813-2.044-1.725-.413-.6.375zm-1.088-.544c2.305-1.913-2.44.865 0 0zm5.513 3.676c1.555-1.032-1.877-.32 0 0zM18.267 56.15c2.063.469 8.27 5.1 4.613.319-1.875-.563-.75-5.138-2.682-4.332 1.275 2.138 1.069 3.057-1.631 1.706-3.394-1.631-1.913.825-1.256 1.5-.882.206 1.219.788.956.807zm-9.432-7.445c.356-1.538-3.413-8.42-1.8-3.45.599 1.031.543 3.018 1.8 3.45zm17.29 10.67c-1.069-.881-.057-.131 0 0zm2.625.619c0-1.631-2.888-.656 0 0zm22.728 14.327c-.431-1.106-1.706-.038 0 0zm1.106.788c-.172-.619-.638.113 0 0zm9 5.682c.863-.656-1.072-.075 0 0zM13.542 49.905c2.494-.956-2.645-.675 0 0zM49.49 72.563c-.037-1.618-1.594.389 0 0zM12.566 47.636c1.594-.563-1.481-.373 0 0zm4.614 2.227c-.019-.539-.488.211 0 0zm56.371 34.561c2.044-.413 6.713 1.05 7.464-.544-2.475-.056-8.607-1.744-8.889.413l.544.094zm-54.89-34.182c.019-1.631-1.275-.079 0 0zm-12.17-8.438c-.544-3.094-2.079-.469 0 0zm2.907.731c.038-.994-2.644-.9 0 0zm1.669.806c-.488-.393-.376.488 0 0zm10.389 6.676c.506-.431-1.144-.319 0 0zm-11.515-8.5c-.281-2.339-3.357-.354 0 .005zm-5.929-3.854c-.072-1.091-.578.409 0 0zm.863-.675c-.128-1.279-.747.146 0 0zm4.9 2.922c2.063-.806-3.769-1.688-.413-.15zm65.334 40.337c1.332-1.2-1.668-.375 0 0zm7.914 4.107c.503-1.575-1.353.209-.003 0zM10.279 37.341c.225-1.519-1.651.3 0 0zM3.321 32.69c-.375-2.138-.319-5.888 3.244-4.632-4.763.956 3.3 5.926 2.288 2.007 2.007.094 3.919-1.181 2.85.769 3.957-.431 6.695-3.863 10.5-3.394a42.623 42.623 0 009.435-1.877c2.625-.206 5.157-3.038 3.713-4.707a40.822 40.822 0 00-11.308.919c-4.388.919-8.382 2.663-12.808 3.413-4.332.581.863 1.594-.375 1.819-2.25.788 2.682 1.313-.3 2.119-1.819-.338-3.751-.975-2.963-2.925-4.144.525-7.782 2.269-4.5 6.47zm10-5.082c.975-3.582 5.194 2.944 1.594.469a2.3 2.3 0 00-1.6-.469zm.191-1.725c1.383-1.032.726.58-.005 0zm1.782.019c.131-1.631 4.069.881.638.6zm2.419-.975c.876-1.032.257.936-.005 0zm.619-.413c1.481-1.782 8.382-1.144 3.319-.169-1.334-1.013-2.385.6-3.322.169zm9.02-1.388c-.249-4.857 4.458 1.725-.006 0zm2.55-.019c.938-2.457 3.619-.975.431-.506.051.281-.1 1.275-.436.506zm-20.628 13c2.791-1.725-2.962-1.5-.003 0zm2.063.563c.97-1.036-2.143-.436 0-.007zm-6.084-4.318c1.594-1.219-1.875-.469 0 0zm82.418 51.551c.056-1.406-1.219.66 0 0zm-8.364-5.7c.225-1.651-1.087.131 0 0zm10.67 6.263c2.232 0 6.751-.694 1.913-.694-.787.132-4.444.091-1.913.691zM13.129 35.653c1.819-.131 2.832-1.988-.338-1.875-4.932-.506 4.332 1.669-.619 1.05-.675.45.94.956.957.825zm1.594.825c-.188-1.181-.563.6 0 0zm1.875-5.044c.807-.957-1.069-.263 0 0zm-5.986-10.033c3.225-1.088 7.632-2.325 9.151.525-1.556-1.857-.619-3.694.844-.975 2.063 2.757 3.094-1.256 1.744-2.175 1.538 1.913 3.263 2.794 1.031.113 2.438-2.925-4.894.394-6.563.356-.806.375-8.289 1.932-6.207 2.157zm1.875-3.6c1.838-1.388 6.357.806 3.45-1.388-.258-.244-6.334 1.669-3.446 1.387zm6.713.263c2.157.056-.919-2.869 1.631-1.556-.413-1.369-2.982-1.631-4.257-2.194-.688 1.274 1.468 3.768 2.631 3.749zm-5.508-6.077c.731-.994-1.313.506 0 0zm2.719.656c3.45-.45-.9-1.481-.694-.038zm-5.1-3.994c-2.438-3.188 4.576.544 2.1-2.794-2.082-1.669-4.089 1.856-2.1 2.794zm31.301 16.859c1.125-1.988-4.632-2.682-.75-.694.35.112.259.825.75.694z" fill="#fff" />
  </g>
</svg>
