<svg xmlns="http://www.w3.org/2000/svg" width="96" height="96"><g data-name="グループ 10"><path data-name="長方形 10" fill="none" d="M0 0h96v96H0z"/><path d="M12.7 86.41L5 0h84.618l-7.7 86.377L47.243 96z" fill="#e44d26"/><path d="M47.309 88.668l28.007-7.765 6.603-73.835h-34.61z" fill="#f16529"/><path d="M47.309 39.124H33.272l-.962-10.851h15V17.687H20.729l.265 2.821 2.588 29.2h23.727zm0 27.509l-.033.033-11.813-3.219-.763-8.429H24.081l1.46 16.625 21.735 6.039.033-.033z" fill="#ebebeb"/><path d="M47.276 39.124V49.71h13.041l-1.228 13.738-11.813 3.185v11.05l21.7-6.039.166-1.792 2.489-27.874.266-2.854zm0-21.437v10.586H72.86l.232-2.389.465-5.376.265-2.821z" fill="#fff"/></g></svg>