<svg xmlns="http://www.w3.org/2000/svg" width="96" height="96"><g data-name="グループ 14"><path data-name="長方形 6" fill="none" d="M0 0h96v96H0z"/><g data-name="グループ 13"><path data-name="パス 17" d="M6.103 23.715C-2.41 35.941-1.341 51.824 5.15 64.781c.15.319.319.619.469.919l.319.6.188.319.319.619.619 1.069.356.581c.225.375.488.75.694 1.125l.319.469c.394.6.806 1.2 1.256 1.781.319.431.619.844.956 1.275l.338.45.9 1.069.319.394c.394.469.806.938 1.219 1.388l.019.038a12.64 12.64 0 001.71 1.763c.338.319.638.656.994.975l.413.394c.431.431.881.825 1.35 1.238l.038.019.225.188c.413.356.825.713 1.256 1.05l.506.431c.319.263.694.525 1.031.806l.544.431c.375.281.769.544 1.144.825l.431.281.113.094 1.125.75.488.319c.581.375 1.181.731 1.744 1.106l.488.263c.431.244.9.506 1.331.731l.731.375c.3.169.619.319.919.506l.225.094.375.188c.488.244.994.469 1.5.694l.319.15c.581.244 1.144.506 1.744.731l.413.15c.544.206 1.106.413 1.65.6l.188.056c.619.225 1.219.413 1.856.619l.431.131a14.378 14.378 0 001.894.544c41.1 7.5 53.049-24.715 53.049-24.715-10.042 13.069-27.837 16.5-44.715 12.675-.619-.15-1.238-.338-1.875-.525-.75-.225-1.519-.469-2.269-.713l-.244-.094a57.401 57.401 0 01-1.594-.6l-.431-.169c-.6-.244-1.163-.469-1.744-.713l-.338-.15c-.488-.225-.975-.431-1.463-.675l-.431-.225c-.375-.169-.75-.375-1.125-.563l-.731-.375c-.45-.244-.9-.506-1.369-.75l-.45-.263q-.9-.534-1.744-1.069l-.469-.319a29.551 29.551 0 01-1.256-.825l-.413-.3a13.438 13.438 0 01-1.181-.844l-.525-.413c-.338-.263-.694-.525-1.05-.825l-.488-.375c-.45-.356-.9-.731-1.331-1.125l-.15-.131-1.369-1.256-.413-.375c-.319-.338-.656-.656-.994-.994l-.394-.413a40.9 40.9 0 01-1.238-1.294l-.056-.056c-.431-.45-.825-.938-1.256-1.406l-.319-.394-.9-1.106c-.469-.6-.919-1.181-1.369-1.8-9.355-12.768-12.73-30.376-5.248-44.834zm26.365-10.3c-6.169 8.851-5.813 20.683-1.013 30.04a44.493 44.493 0 002.7 4.538 21.3 21.3 0 003.169 3.938c.431.488.9.956 1.369 1.444l.356.356c.45.431.919.881 1.406 1.294l.056.056a30.42 30.42 0 001.65 1.369l.375.3c.563.431 1.125.844 1.706 1.256l.056.056c.244.169.525.338.806.525l.356.244c.431.281.844.525 1.275.806l.188.094c.356.225.769.431 1.144.619l.394.225.788.413.15.056c.525.263 1.069.525 1.631.769l.375.15c.431.188.9.375 1.331.544l.581.206c.413.15.844.3 1.256.431l.544.169a12.322 12.322 0 001.8.525c31.747 5.213 39.079-19.2 39.079-19.2-6.619 9.507-19.408 14.045-33.041 10.52-.6-.15-1.2-.338-1.8-.525l-.544-.15c-.413-.15-.844-.3-1.238-.431l-.581-.225c-.45-.188-.9-.338-1.35-.544l-.356-.15a44.66 44.66 0 01-1.669-.769l-.825-.431-.469-.244c-.375-.188-.713-.394-1.069-.6l-.244-.15c-.431-.263-.863-.525-1.275-.806l-.394-.244-.825-.525c-.581-.413-1.144-.844-1.725-1.256l-.375-.319a38.218 38.218 0 01-12.972-18.468c-2.363-7.594-1.838-16.108 2.231-23.008zM54.65 5.732a18.48 18.48 0 00-1.48 17.851 25.129 25.129 0 0014.439 13.464l.788.281.338.113c.375.113.75.244 1.125.338 17.514 3.375 22.258-9.02 23.552-10.82-4.182 6-11.176 7.426-19.764 5.344a29.062 29.062 0 01-2.063-.638q-1.238-.45-2.475-1.013a26.567 26.567 0 01-4.313-2.644C57.09 22.177 52.35 11.057 57.371 2z" fill="#28609b"/></g></g></svg>