<svg xmlns="http://www.w3.org/2000/svg" width="96" height="96"><g data-name="グループ 12"><path data-name="長方形 8" fill="none" d="M0 0h96v96H0z"/><path data-name="パス 4" d="M0 96V0h96v96z" fill="#ffd600"/><path data-name="パス 5" d="M62.768 71.859c1.845 3 3.851 5.869 8.1 5.869 3.568 0 5.44-1.773 5.44-4.227 0-2.936-1.936-3.979-5.861-5.688l-2.152-.917c-6.212-2.629-10.34-5.936-10.34-12.909 0-6.427 4.917-11.32 12.6-11.32 5.475 0 9.408 1.9 12.245 6.861l-6.7 4.285c-1.475-2.635-3.069-3.672-5.545-3.672-2.523 0-4.12 1.592-4.12 3.672 0 2.571 1.6 3.611 5.293 5.2l2.152.917c7.32 3.117 11.448 6.3 11.448 13.459 0 7.712-6.091 11.939-14.267 11.939-8 0-12.539-4.013-15.067-8.981zm-30.9.219c1.349 2.416 3.4 4.275 6.349 4.275 2.821 0 4.445-1.115 4.445-5.448V42.667h8.893v29.6c0 8.979-5.208 13.064-12.813 13.064a15.6 15.6 0 01-13.853-8.981z" fill="#000001"/></g></svg>