<svg xmlns="http://www.w3.org/2000/svg" width="97" height="96"><g data-name="グループ 8"><path data-name="長方形 12" fill="none" d="M1 0h96v96H1z"/><g data-name="グループ 2"><g data-name="グループ 1"><path data-name="パス 1" d="M95.627 45.686c-.63-.72-9.419-11.713-10.964-13.573s-2.309-1.53-3.254-1.4-12.074 2.01-13.363 2.22-2.1.735-1.3 1.845c.7.99 8.009 11.354 9.629 13.633L47.323 55.37 24.191 16.754c-.915-1.365-1.11-1.844-3.21-1.74s-18.133 1.425-19.273 1.53-2.4.6-1.26 3.3S19.8 61.779 20.306 62.914a3.9 3.9 0 004.919 2.25c3.165-.765 14.143-3.63 20.143-5.2C48.533 65.708 55 77.347 56.2 79.014c1.59 2.235 2.7 1.86 5.145 1.11 1.92-.585 29.936-10.664 31.2-11.174s2.04-.885 1.185-2.16c-.63-.93-8.024-10.829-11.893-16.018 2.655-.7 12.088-3.21 13.093-3.495 1.185-.3 1.35-.87.7-1.589zM42.8 56.484c-.345.075-16.618 3.975-17.488 4.17s-.87.1-.975-.2-19.348-40-19.618-40.5-.255-.885 0-.885 15.373-1.35 15.9-1.38.48.09.675.42c0 0 21.327 36.805 21.687 37.451.393.654.168.854-.181.924zm45.9 8.61c.255.4.525.674-.3.96s-27.552 9.314-28.062 9.538c-.525.225-.93.3-1.59-.674S49.389 58.9 49.389 58.9l28.317-7.364c.7-.225.93-.375 1.38.33.433.719 9.357 12.823 9.614 13.228zm1.815-20.113c-.63.135-11.039 2.715-11.039 2.715l-8.5-11.669c-.24-.345-.435-.675.165-.75s10.258-1.829 10.694-1.92.809-.225 1.35.51 7.889 10.049 8.174 10.409-.21.555-.84.705z" fill="#f35045"/></g></g></g></svg>