<svg xmlns="http://www.w3.org/2000/svg" width="96" height="96"><defs><clipPath id="a"><path d="M14.4-360.059c0 13.387 20.631 24.24 46.08 24.24 25.449 0 46.08-10.853 46.08-24.24 0-13.387-20.631-24.24-46.08-24.24-25.449 0-46.08 10.853-46.08 24.24" transform="translate(-14.4 384.299)"/></clipPath><clipPath id="c"><path d="M0-405h96v54H0z" transform="translate(0 405)"/></clipPath><radialGradient id="b" cx=".628" cy=".8" r="1.248" gradientTransform="matrix(.526 0 0 1 -.009 .511)" gradientUnits="objectBoundingBox"><stop offset="0" stop-color="#aeb2d5"/><stop offset=".3" stop-color="#aeb2d5"/><stop offset=".75" stop-color="#484c89"/><stop offset="1" stop-color="#484c89"/></radialGradient></defs><g data-name="グループ 7"><path data-name="長方形 13" fill="none" d="M0 0h96v96H0z"/><g transform="translate(1.92 23.76)" clip-path="url(#a)"><path d="M14.4-360.059c0 13.387 20.631 24.24 46.08 24.24 25.449 0 46.08-10.853 46.08-24.24 0-13.387-20.631-24.24-46.08-24.24-25.449 0-46.08 10.853-46.08 24.24" transform="translate(-14.4 384.299)" fill="url(#b)"/></g><g clip-path="url(#c)" transform="translate(0 21)"><path d="M48 49.441c24.455 0 44.28-10.047 44.28-22.44S72.455 4.561 48 4.561 3.72 14.608 3.72 27.001 23.545 49.441 48 49.441" fill="#777bb3"/></g><g clip-path="url(#c)" transform="translate(0 21)"><path d="M26.956 29.782a7.349 7.349 0 004.462-1.1 5.963 5.963 0 001.929-3.725c.317-1.634.2-2.776-.359-3.391s-1.8-.948-3.649-.948h-3.216l-1.78 9.164zm-10.51 11.292a.5.5 0 01-.386-.182.5.5 0 01-.1-.413l4.721-24.292a.5.5 0 01.491-.4h10.176c3.2 0 5.578.868 7.075 2.581s1.969 4.129 1.381 7.153a11.418 11.418 0 01-1.223 3.4 11.389 11.389 0 01-2.258 2.819 9.879 9.879 0 01-3.706 2.221 16.787 16.787 0 01-5.094.654h-4.12l-1.18 6.054a.5.5 0 01-.491.4z"/><path d="M26.534 21.115h2.8c2.237 0 3.014.491 3.278.783.438.486.521 1.51.239 2.961a5.5 5.5 0 01-1.743 3.424 6.893 6.893 0 01-4.157 1h-2.006zm4.805-5.833H21.166a1 1 0 00-.981.809l-4.721 24.292a1 1 0 00.21.827 1 1 0 00.772.364h5.288a1 1 0 00.982-.809l1.1-5.649h3.708a17.275 17.275 0 005.246-.68 10.378 10.378 0 003.892-2.331 11.894 11.894 0 002.347-2.943 11.917 11.917 0 001.278-3.55c.619-3.184.116-5.734-1.495-7.578-1.6-1.826-4.1-2.752-7.451-2.752m-7.605 15h3.219a7.772 7.772 0 004.767-1.206 6.4 6.4 0 002.112-4.026q.525-2.708-.479-3.821t-4.02-1.113h-3.626l-1.975 10.166m7.605-14q4.592 0 6.7 2.41t1.266 6.729a10.876 10.876 0 01-1.171 3.253 10.848 10.848 0 01-2.154 2.7 9.347 9.347 0 01-3.522 2.113 16.221 16.221 0 01-4.937.63h-4.533l-1.254 6.457h-5.292l4.721-24.292h10.176" fill="#fff"/><path d="M51.931 34.612a.5.5 0 01-.386-.182.5.5 0 01-.105-.413l2.089-10.748c.2-1.022.15-1.756-.138-2.066-.176-.189-.7-.507-2.268-.507h-3.784L44.71 34.212a.5.5 0 01-.491.4h-5.25a.5.5 0 01-.386-.182.5.5 0 01-.1-.413l4.721-24.292a.5.5 0 01.491-.4h5.25a.5.5 0 01.386.182.5.5 0 01.1.413l-1.139 5.863h4.07c3.1 0 5.2.547 6.428 1.671 1.248 1.147 1.638 2.982 1.158 5.453l-2.2 11.3a.5.5 0 01-.491.4z"/><path d="M48.943 8.824h-5.25a1 1 0 00-.982.809L37.99 33.924a1 1 0 00.21.827 1 1 0 00.772.364h5.25a1 1 0 00.982-.809l2.547-13.108h3.371c1.561 0 1.888.333 1.9.348.095.1.219.574.014 1.63l-2.088 10.748a1 1 0 00.21.827 1 1 0 00.772.364h5.333a1 1 0 00.982-.809l2.2-11.3c.515-2.653.074-4.644-1.31-5.917-1.321-1.214-3.535-1.8-6.766-1.8h-3.464l1.024-5.268a1 1 0 00-.21-.827 1 1 0 00-.776-.37m0 1l-1.255 6.458h4.677q4.414 0 6.09 1.54t1.005 4.99l-2.2 11.3h-5.333l2.089-10.748a2.917 2.917 0 00-.262-2.5 3.689 3.689 0 00-2.634-.667h-4.2l-2.7 13.917h-5.25l4.723-24.29h5.25" fill="#fff"/><path d="M68.259 29.782a7.349 7.349 0 004.462-1.1 5.963 5.963 0 001.929-3.725c.317-1.634.2-2.776-.359-3.391s-1.8-.948-3.649-.948h-3.216l-1.779 9.164zm-10.51 11.292a.5.5 0 01-.386-.182.5.5 0 01-.105-.413l4.721-24.292a.5.5 0 01.491-.4h10.175c3.2 0 5.578.868 7.075 2.581s1.968 4.128 1.381 7.153a11.428 11.428 0 01-1.224 3.4 11.389 11.389 0 01-2.251 2.819 9.879 9.879 0 01-3.706 2.221 16.787 16.787 0 01-5.094.654h-4.12l-1.176 6.054a.5.5 0 01-.491.4z"/><path d="M67.836 21.115h2.8c2.237 0 3.014.491 3.278.783.438.486.521 1.51.239 2.961a5.5 5.5 0 01-1.743 3.424 6.893 6.893 0 01-4.157 1h-2.006zm4.805-5.833H62.469a1 1 0 00-.981.809l-4.722 24.292a1 1 0 00.21.827 1 1 0 00.772.364h5.288a1 1 0 00.982-.809l1.1-5.649h3.708a17.275 17.275 0 005.246-.68 10.378 10.378 0 003.893-2.331 11.888 11.888 0 002.346-2.942 11.917 11.917 0 001.278-3.55c.619-3.184.116-5.734-1.495-7.578-1.6-1.826-4.1-2.752-7.451-2.752m-7.605 15h3.219a7.772 7.772 0 004.767-1.206 6.4 6.4 0 002.112-4.027q.526-2.708-.479-3.821t-4.02-1.113h-3.626l-1.975 10.166m7.605-14q4.592 0 6.7 2.41t1.266 6.729a10.876 10.876 0 01-1.171 3.253 10.848 10.848 0 01-2.154 2.7 9.347 9.347 0 01-3.522 2.113 16.221 16.221 0 01-4.937.63H64.29l-1.254 6.457h-5.292l4.721-24.292h10.176" fill="#fff"/></g></g></svg>