<svg xmlns="http://www.w3.org/2000/svg" width="97" height="96"><defs><linearGradient id="a" x1=".001" y1="1.34" x2=".006" y2="1.34" gradientUnits="objectBoundingBox"><stop offset="0" stop-color="#387eb8"/><stop offset="1" stop-color="#366994"/></linearGradient><linearGradient id="b" x1="-.346" y1="1.001" x2="-.341" y2="1.001" gradientUnits="objectBoundingBox"><stop offset="0" stop-color="#ffe052"/><stop offset="1" stop-color="#ffc331"/></linearGradient></defs><g data-name="グループ 15"><path data-name="長方形 5" fill="none" d="M1 0h96v96H1z"/><path data-name="パス 8" d="M47.653 1.3C23.283 1.3 24.8 11.873 24.8 11.873l.019 10.948h23.247V26.1H15.6S0 24.339 0 48.916 13.61 72.63 13.61 72.63h8.117v-11.4S21.3 47.62 35.112 47.62H58.17s12.954.206 12.954-12.523V14.048c.018 0 1.987-12.748-23.471-12.748zM34.831 8.667a4.18 4.18 0 11-4.18 4.18 4.18 4.18 0 014.18-4.18z" fill="url(#a)" transform="translate(0 -1.3)"/><path data-name="パス 9" d="M155.94 201.514c24.37 0 22.852-10.573 22.852-10.573l-.019-10.948h-23.245v-3.281h32.487s15.6 1.762 15.6-22.814S190 130.184 190 130.184h-8.117v11.4s.431 13.61-13.385 13.61h-23.055s-12.954-.206-12.954 12.523v21.052c-.038-.003-2.006 12.745 23.451 12.745zm12.822-7.367a4.18 4.18 0 114.18-4.18 4.18 4.18 0 01-4.18 4.18z" transform="translate(-107.612 -106.02)" fill="url(#b)"/></g></svg>