<svg xmlns="http://www.w3.org/2000/svg" width="96" height="96" viewBox="0 0 96 96">
  <g id="Group_22" data-name="Group 22" transform="translate(-1743 -846)">
    <rect id="Rectangle_14" data-name="Rectangle 14" width="96" height="96" transform="translate(1743 846)" fill="none"/>
    <path id="sass-1" d="M82.526,41.562a19.778,19.778,0,0,0-8.7,2.025,17.9,17.9,0,0,1-1.95-4.5,12.447,12.447,0,0,1-.169-3.788,30.353,30.353,0,0,1,1.144-4.088c-.019-.169-.206-.994-2.138-1.013s-3.6.375-3.788.881a21.536,21.536,0,0,0-.806,2.869c-.338,1.763-3.863,8.007-5.869,11.288a11.516,11.516,0,0,1-1.332-3.3,12.446,12.446,0,0,1-.169-3.788,30.367,30.367,0,0,1,1.144-4.088c-.019-.169-.206-.994-2.137-1.013s-3.6.375-3.788.881-.394,1.706-.806,2.869c-.394,1.163-5.082,11.589-6.3,14.307C46.241,52.494,45.7,53.6,45.3,54.35s-.019.056-.056.131c-.338.638-.525.994-.525.994v.019c-.263.469-.544.919-.675.919a6.253,6.253,0,0,1,.038-2.981c.694-3.619,2.381-9.263,2.363-9.47,0-.094.319-1.088-1.088-1.594a1.709,1.709,0,0,0-1.969.338c-.113,0-.206.3-.206.3s1.519-6.357-2.907-6.357c-2.775,0-6.6,3.019-8.494,5.776-1.2.656-3.75,2.044-6.451,3.525-1.031.563-2.1,1.163-3.113,1.706l-.206-.225c-5.363-5.719-15.283-9.77-14.87-17.458C7.294,27.179,8.269,19.81,26.2,10.884c14.683-7.313,26.44-5.307,28.484-.844,2.907,6.376-6.282,18.227-21.545,19.933-5.813.656-8.87-1.594-9.638-2.438-.806-.881-.919-.919-1.219-.75-.488.263-.188,1.05,0,1.519.45,1.181,2.325,3.282,5.513,4.332,2.794.919,9.62,1.425,17.87-1.763C54.9,27.292,62.124,17.353,60.005,9.046,57.849.589,43.823-2.186,30.565,2.521c-7.895,2.813-16.445,7.2-22.6,12.957C.656,22.3-.507,28.267-.019,30.742c1.707,8.832,13.876,14.589,18.752,18.845-.244.131-.469.262-.675.375-2.438,1.2-11.72,6.057-14.045,11.195-2.625,5.813.413,9.995,2.438,10.557,6.263,1.744,12.676-1.388,16.145-6.544,3.45-5.157,3.038-11.851,1.444-14.908l-.056-.113L25.9,49.025c1.238-.731,2.457-1.406,3.525-1.988a23.347,23.347,0,0,0-1.256,6.376c-.263,3.3,1.088,7.576,2.869,9.263a3.174,3.174,0,0,0,2.306.75c2.063,0,3-1.707,4.032-3.75,1.275-2.494,2.4-5.382,2.4-5.382s-1.406,7.819,2.438,7.819c1.406,0,2.813-1.819,3.45-2.756v.019s.038-.056.113-.188.154-.235.225-.356v-.038c.563-.975,1.819-3.207,3.694-6.9,2.419-4.763,4.744-10.726,4.744-10.726a34.226,34.226,0,0,0,.919,3.863,36.965,36.965,0,0,0,2.006,4.5c-.563.788-.9,1.238-.9,1.238l.019.019c-.45.6-.956,1.238-1.481,1.875-1.913,2.288-4.2,4.894-4.5,5.644a1.545,1.545,0,0,0,.413,2.063,3.754,3.754,0,0,0,2.363.375,10.525,10.525,0,0,0,3.525-.807,12.209,12.209,0,0,0,3.038-1.594,6.763,6.763,0,0,0,2.907-5.982,12.027,12.027,0,0,0-1.106-4.219c.169-.244.338-.488.506-.75a79.155,79.155,0,0,0,5.25-9.095,34.226,34.226,0,0,0,.919,3.863,27.081,27.081,0,0,0,1.706,3.863A16.671,16.671,0,0,0,64.9,52.644c-1.106,3.188-.244,4.632,1.388,4.969a4.991,4.991,0,0,0,2.569-.525A11.641,11.641,0,0,0,72.1,55.42c1.875-1.388,3.675-3.319,3.582-5.926a11.359,11.359,0,0,0-.806-3.507,18.268,18.268,0,0,1,9.3-1.069c8.344.975,9.995,6.188,9.676,8.363a5.6,5.6,0,0,1-2.644,3.75c-.581.356-.769.488-.713.75.075.394.338.375.844.3a6.491,6.491,0,0,0,4.538-5.794c.225-5.157-4.669-10.783-13.351-10.727ZM18.17,63.257c-2.756,3.019-6.638,4.163-8.288,3.188C8.1,65.414,8.794,60.97,12.188,57.763A44.121,44.121,0,0,1,18.7,52.906c.394-.244.994-.6,1.706-1.031a2,2,0,0,1,.188-.113c.131-.075.281-.169.431-.263a11.961,11.961,0,0,1-2.85,11.757ZM38.328,49.55c-.956,2.344-2.982,8.363-4.2,8.026-1.05-.281-1.688-4.838-.206-9.338A20.847,20.847,0,0,1,37.2,42.218c1.519-1.688,3.169-2.25,3.582-1.556C41.272,41.562,38.928,48.087,38.328,49.55ZM54.961,57.5c-.413.206-.788.356-.956.244-.131-.075.169-.356.169-.356s2.081-2.231,2.907-3.263c.469-.6,1.031-1.294,1.631-2.081v.225c0,2.7-2.588,4.5-3.75,5.232Zm12.826-2.925c-.3-.225-.262-.919.75-3.094a11.594,11.594,0,0,1,2.85-3.675,4.639,4.639,0,0,1,.281,1.613A5.276,5.276,0,0,1,67.787,54.575Z" transform="translate(1743.116 857.759)" fill="#cf649a"/>
  </g>
</svg>
