<svg xmlns="http://www.w3.org/2000/svg" width="96" height="96"><g data-name="グループ 18"><path data-name="長方形 2" fill="none" d="M0 0h96v96H0z"/><g transform="translate(-38.799)"><path d="M46.799 61.05v15.337c0 10.462 17.55 19.612 39.225 19.612s39.225-9.15 39.225-19.613V61.05z" fill="#95a5a6"/><ellipse cx="39.225" cy="17.4" rx="39.225" ry="17.4" transform="translate(46.799 43.65)" fill="#bdc3c7"/><path d="M47.1 76.237a7.933 7.933 0 00-.3 2.212c0 9.581 17.55 17.4 39.225 17.4s39.225-7.819 39.225-17.4a7.933 7.933 0 00-.3-2.212c-2.363 8.25-18.881 15.188-38.925 15.188S49.462 84.506 47.1 76.237z" fill="#7f8c8d"/><path d="M46.799 39.225v15.338c0 10.462 17.55 19.612 39.225 19.612s39.225-9.15 39.225-19.613V39.225z" fill="#95a5a6"/><ellipse cx="39.225" cy="17.4" rx="39.225" ry="17.4" transform="translate(46.799 21.825)" fill="#bdc3c7"/><path d="M47.1 54.412a7.933 7.933 0 00-.3 2.212c0 9.581 17.55 17.4 39.225 17.4s39.225-7.819 39.225-17.4a7.933 7.933 0 00-.3-2.212c-2.363 8.269-18.863 15.337-38.925 15.337S49.462 62.681 47.1 54.412z" fill="#7f8c8d"/><path d="M46.799 17.4v15.338c0 10.463 17.55 19.612 39.225 19.612s39.225-9.15 39.225-19.612V17.4z" fill="#95a5a6"/><path d="M47.1 32.738a7.933 7.933 0 00-.3 2.212c0 9.431 17.55 17.4 39.225 17.4s39.225-7.819 39.225-17.4a7.933 7.933 0 00-.3-2.212c-2.363 8.25-18.881 15.188-38.925 15.188S49.462 40.988 47.1 32.738z" fill="#7f8c8d"/><path d="M86.024 61.05v34.8c21.675 0 39.225-9.15 39.225-19.612V60.9H86.024z" fill="#bdc3c7"/><path d="M86.024 43.5v34.8c21.675 0 39.225-7.819 39.225-17.4s-17.55-17.4-39.225-17.4z" fill="#ecf0f1"/><path d="M86.024 39.225v34.8c21.675 0 39.225-8.85 39.225-19.613V39.225z" fill="#bdc3c7"/><path d="M124.949 54.412c-2.362 8.7-18.862 15.337-38.925 15.337v4.425c21.675 0 39.225-7.819 39.225-17.4a11.284 11.284 0 00-.3-2.362z" fill="#95a5a6"/><path d="M86.024 21.825v34.8c21.675 0 39.225-7.819 39.225-17.4s-17.55-17.4-39.225-17.4z" fill="#ecf0f1"/><path d="M86.024 17.4v34.95c21.675 0 39.225-8.85 39.225-19.612V17.4z" fill="#bdc3c7"/><path d="M124.949 32.737c-2.362 8.55-18.881 15.188-38.925 15.188v4.425c21.675 0 39.225-7.819 39.225-17.4a8.755 8.755 0 00-.3-2.213zm0 43.5c-2.362 8.25-18.881 15.188-38.925 15.188v4.425c21.675 0 39.225-7.819 39.225-17.4a7.934 7.934 0 00-.3-2.213z" fill="#95a5a6"/><ellipse cx="39.225" cy="17.4" rx="39.225" ry="17.4" transform="translate(46.799)" fill="#bdc3c7"/></g></g></svg>