<svg xmlns="http://www.w3.org/2000/svg" width="96" height="96"><g data-name="グループ 9"><path data-name="長方形 11" fill="none" d="M0 0h96v96H0z"/><g transform="translate(-3.51 -1.668)"><circle data-name="楕円形 1" cx="48" cy="48" r="48" transform="translate(3.51 1.668)" fill="#fff"/><path data-name="パス 54" d="M51.511 8.4A41.118 41.118 0 0179.43 19.276c-3.6-.1-7.2 2.044-7.345 6.947-.3 9.911 11.852 12.023 5.3 31.959L71.97 74.673 57.215 31.21c-.229-.673.037-1.056.864-1.056h4.171a.4.4 0 00.394-.412v-2.471a.4.4 0 00-.394-.412q-11.849.518-23.559 0a.4.4 0 00-.394.413v2.471a.4.4 0 00.394.412h4.194c.933 0 1.194.311 1.414.912l6.062 16.58-9.12 27.538L26.253 31.03c-.186-.554.039-.875.572-.875H31.6a.4.4 0 00.4-.412v-2.471a.4.4 0 00-.394-.412c-5.014.266-10.048.32-14.736.368A41.24 41.24 0 0151.509 8.394zm36.3 21.62A41.3 41.3 0 0171.32 85.882l12.873-36.458c1.994-5.642 3.845-13.268 3.619-19.409zM65.33 88.566a41.428 41.428 0 01-25.822.6l12.714-36.438 13.107 35.84zm-31.48-1.587a41.3 41.3 0 01-19.9-54.426l19.9 54.427zM51.51 4.522a45.2 45.2 0 11-.006 0zm0-2.854a48.046 48.046 0 11-.007 0z" fill="#0e769d" fill-rule="evenodd"/></g></g></svg>