<svg xmlns="http://www.w3.org/2000/svg" width="96" height="96"><g data-name="グループ 19"><path data-name="長方形 1" fill="none" d="M0 0h96v96H0z"/><path data-name="パス 40" d="M17 1h62a16.978 16.978 0 0117 17v59.6a16.978 16.978 0 01-17 17H17a16.978 16.978 0 01-17-17V18A16.978 16.978 0 0117 1z" fill="#470137"/><g fill="#ff61f6"><path data-name="パス 41" d="M50.487 25.605l-12 19.8 12.806 21a.713.713 0 01.077.48c-.038.154-.192.038-.442.077h-9.165c-.634 0-1.075-.038-1.363-.442-.845-1.69-1.728-3.322-2.554-4.993-.845-1.632-1.767-3.322-2.727-5.051s-1.92-3.437-2.881-5.2h-.075c-.845 1.728-1.767 3.437-2.689 5.166s-1.844 3.437-2.727 5.127c-.922 1.69-1.844 3.4-2.765 5.051-.154.4-.48.442-.922.442h-8.772c-.154 0-.288.077-.288-.115a.58.58 0 01.077-.442l12.444-20.433-12.118-20.51c-.115-.154-.154-.326-.077-.4a.484.484 0 01.4-.154h9.087a2.437 2.437 0 01.557.077 1.032 1.032 0 01.4.365c.768 1.728 1.632 3.437 2.554 5.166.96 1.728 1.882 3.4 2.881 5.089a86.09 86.09 0 012.689 5.089h.077c.845-1.767 1.728-3.476 2.593-5.166a434.256 434.256 0 012.727-5.051c.922-1.671 1.805-3.4 2.689-5.031a.637.637 0 01.25-.4.787.787 0 01.519-.077h8.45a.371.371 0 01.442.288.639.639 0 01-.154.25z"/><path data-name="パス 42" d="M68.98 67.81a19.843 19.843 0 01-8.6-1.8 13.921 13.921 0 01-6.049-5.435 17.3 17.3 0 01-2.208-9.122 16.54 16.54 0 012.208-8.45 16.708 16.708 0 016.356-6.2 20.532 20.532 0 0110.12-2.324 7.632 7.632 0 01.845.038c.365.038.768.038 1.248.077V21.952c0-.288.115-.442.4-.442h8.125a.362.362 0 01.4.288v38.158c0 .73.038 1.517.077 2.4.077.845.115 1.632.154 2.324a.623.623 0 01-.4.634 30.406 30.406 0 01-6.529 1.92 34.682 34.682 0 01-6.147.576zm3.918-8.008v-17.61c-.365-.077-.73-.154-1.075-.192-.442-.038-.883-.077-1.325-.077a9.912 9.912 0 00-4.513 1.037 8.262 8.262 0 00-4.724 8.046 11.228 11.228 0 00.672 4.129 7.889 7.889 0 001.8 2.842 6.739 6.739 0 002.727 1.594 10.354 10.354 0 003.322.519c.6 0 1.152-.038 1.69-.077a3.605 3.605 0 001.421-.211z"/></g></g></svg>