<svg xmlns="http://www.w3.org/2000/svg" width="44" height="44" viewBox="0 0 44 44">
  <g id="github_icon" transform="translate(-1577 -20)">
    <rect id="frame" width="44" height="44" transform="translate(1577 20)" fill="none" />
    <g id="github" transform="translate(1580 22)">
      <path id="github-alt" d="M37.264,13.775a15.529,15.529,0,0,1-1.019,5.937,8.257,8.257,0,0,1-2.96,3.79A14.394,14.394,0,0,1,29.4,25.421a24.352,24.352,0,0,1-4.561.868,5.586,5.586,0,0,1,1.843,4.658v8.22H13.2V33.23a16.553,16.553,0,0,1-2.862.274A9.43,9.43,0,0,1,8.1,33.276a7.866,7.866,0,0,1-1.65-.594,4.942,4.942,0,0,1-1.164-.776,7.307,7.307,0,0,1-.727-.776,2.39,2.39,0,0,1-.388-.639l-.1-.274a10.442,10.442,0,0,0-1.31-2.192,4.894,4.894,0,0,0-1.215-1.188l-.486-.274Q0,25.741,0,25.421t.679-.411H1.26a5.066,5.066,0,0,1,2.232.731A4.175,4.175,0,0,1,4.948,27.02l.486.548q2.62,4.293,7.86,2.1a5.013,5.013,0,0,1,1.747-3.379,24.377,24.377,0,0,1-4.561-.868A13.687,13.687,0,0,1,6.646,23.5a8.687,8.687,0,0,1-2.958-3.791A14.956,14.956,0,0,1,2.62,13.775,9.255,9.255,0,0,1,5.435,7.016,8.552,8.552,0,0,1,5.726.257,1.4,1.4,0,0,0,6.5.211,5.834,5.834,0,0,1,8.928.759,21.9,21.9,0,0,1,13.2,2.907a30.341,30.341,0,0,1,6.792-.913,31.388,31.388,0,0,1,6.792.913,18.537,18.537,0,0,1,4.125-2.1A10.02,10.02,0,0,1,33.479.167l.679.091a8.037,8.037,0,0,1,.291,6.759,9.253,9.253,0,0,1,2.815,6.759ZM3.106,26.152q.1-.228-.242-.365t-.437.091q-.1.228.242.365T3.106,26.152Zm1.116,1.142q.242-.183-.1-.5t-.582-.137q-.243.182.1.5T4.221,27.294ZM5.24,28.755q.291-.183,0-.594t-.582-.228q-.291.183,0,.594T5.24,28.755Zm1.5,1.461q.242-.274-.146-.685t-.679-.137q-.291.274.146.685T6.745,30.216Zm1.989.776q.1-.32-.437-.5t-.631.183q-.1.365.437.5T8.734,30.992Zm1.65.5q.582,0,.582-.365t-.582-.365q-.582,0-.582.365T10.384,31.494Zm2.135-.183a1.122,1.122,0,0,0,.437-.228q.146-.137.049-.228,0-.457-.582-.365a1.122,1.122,0,0,0-.437.228.243.243,0,0,0-.049.32q0,.365.582.274Z" transform="translate(0.001 -0.167)" fill="#ccc" />
    </g>
  </g>
</svg>
