<svg xmlns="http://www.w3.org/2000/svg" width="44" height="44" viewBox="0 0 44 44">
  <g id="twitter_icon" transform="translate(-1511 -20)">
    <rect id="frame" width="44" height="44" transform="translate(1511 20)" fill="none" />
    <g id="twitter" transform="translate(1511 24)">
      <path id="social-twitter" d="M45.125,8.647a18.582,18.582,0,0,1-5.184,1.395,8.9,8.9,0,0,0,3.972-4.886A18.191,18.191,0,0,1,38.179,7.3a9.113,9.113,0,0,0-6.592-2.8,8.929,8.929,0,0,0-9.026,8.832,8.45,8.45,0,0,0,.233,2.014A25.783,25.783,0,0,1,4.187,6.113a8.684,8.684,0,0,0-1.229,4.44,8.8,8.8,0,0,0,4.034,7.355,8.976,8.976,0,0,1-4.105-1.1v.109a8.889,8.889,0,0,0,7.242,8.659,9.286,9.286,0,0,1-2.378.31,8.7,8.7,0,0,1-1.7-.165,9.018,9.018,0,0,0,8.438,6.134A18.364,18.364,0,0,1,3.279,35.636a18.715,18.715,0,0,1-2.154-.127A25.653,25.653,0,0,0,14.943,39.5,25.23,25.23,0,0,0,40.649,14.362c0-.382-.01-.766-.029-1.139a18.14,18.14,0,0,0,4.5-4.576Z" transform="translate(-1.125 -4.5)" fill="#ccc" />
    </g>
  </g>
</svg>
